<?xml version="1.0" encoding="utf-8"?>
<!-- Generator: Adobe Illustrator 27.5.0, SVG Export Plug-In . SVG Version: 6.00 Build 0)  -->
<svg version="1.1" xmlns="http://www.w3.org/2000/svg" xmlns:xlink="http://www.w3.org/1999/xlink" x="0px" y="0px"
	 viewBox="0 0 1713 1140" style="enable-background:new 0 0 1713 1140;" xml:space="preserve">
<g id="background">
	<g>
		<rect x="0" y="0" style="fill:#FFFFFF;" width="1713" height="1140"/>
		<ellipse style="opacity:0.03;fill:#2E4661;" cx="856.5" cy="578.649" rx="532.58" ry="533.282"/>
	</g>
</g>
<g id="object">
	<g>
		<path style="fill:#A36652;" d="M401.942,241.024c-23.991,0-45.779,28.419-36.341,51.487c7.762,18.972,16.999,37.515,26.558,55.636
			c1.223,2.318,8.458,17.197,10.607,17.197c1.931,0,5.698-8.92,6.436-10.264c4.267-7.761,8.292-15.657,12.268-23.57
			c4.339-8.636,8.593-17.317,12.676-26.078c7.154-15.349,11.314-26.972,2.354-43.204
			C429.565,249.664,416.471,241.024,401.942,241.024z M424.921,280.156c0,11.859-9.82,21.474-21.934,21.474h-0.443
			c-12.114,0-21.934-9.614-21.934-21.474v-0.434c0-11.86,9.82-21.474,21.934-21.474h0.443c12.114,0,21.934,9.614,21.934,21.474
			V280.156z"/>
	</g>
	<g>
		<rect x="495.064" y="467.411" style="fill:#2E4661;" width="596.886" height="413.399"/>
		<rect x="515.812" y="483.324" style="fill:#FFFFF5;" width="555.391" height="384.66"/>
		<rect x="759.242" y="874.178" style="fill:#2E4661;" width="68.531" height="53.056"/>
		<rect x="711.712" y="925.023" style="fill:#2E4661;" width="163.591" height="30.95"/>
		<polygon style="opacity:0.44;fill:#272525;" points="759.698,883.765 827.737,883.765 827.773,927.234 		"/>
	</g>
	<g>
		<path style="fill:#679BC6;" d="M1579.305,515.003c-24.131-40.39-73.832-59.533-119.116-47.377
			c-0.084,0.023-0.168,0.027-0.252,0.041c-13.923,5.058-25.551,14.881-30.557,30.38c-1.1,3.405-6.482,1.948-5.374-1.481
			c5.365-16.613,17.408-27.42,32.002-33.255c-15.95-50.207-64.513-85.769-117.869-81.813
			c-52.508,3.893-95.169,43.749-105.321,94.876c4.412,1.046,8.745,2.497,12.943,4.409c16.698,7.604,29.659,20.716,38.886,36.418
			c1.825,3.105-2.993,5.908-4.812,2.813c-3.036-5.167-6.565-10.048-10.569-14.509c-14.862-16.557-36.102-26.42-58.493-25.421
			c-22.623,1.01-47.004,13.092-62.234,29.622c-17.453,18.944-26.866,44.562-24.538,70.371c2.285,25.332,15.469,48.953,35.902,64.179
			c18.952,14.123,40.995,20.544,64.418,21.435c15.361,0.585,30.737,0.803,46.106,1.011c43.931,0.596,87.868,0.767,131.803,0.882
			c19.302,0.05,38.604,0.08,57.905,0.093c15.855,0.01,32.542,1.278,48.161-1.732c51.079-9.843,89.74-56.667,84.649-109.446
			C1591.534,541.863,1586.846,527.625,1579.305,515.003z"/>
	</g>
	<path style="fill:#D0D1D3;" d="M1167.598,649.055l0.169,124.998h21.964l1.486-113.884
		C1183.552,656.815,1174.721,653.539,1167.598,649.055z"/>
	<g>
		<g>
			<path style="fill:#6DB294;" d="M226.579,880.502h-66.107c-3.359,0-6.082-2.723-6.082-6.082V703.818
				c0-3.359,2.723-6.082,6.082-6.082h63.096c3.359,0,6.082,2.723,6.082,6.082v0.123c0,3.359-2.723,6.082-6.082,6.082h-52.592
				c-3.34,0-6.055,2.693-6.082,6.032l-1.201,146.027c-0.028,3.379,2.703,6.132,6.082,6.132h56.803c3.359,0,6.082,2.723,6.082,6.082
				v0.123C232.662,877.779,229.939,880.502,226.579,880.502z"/>
		</g>
		<g>
			<path style="fill:#B3D1E2;" d="M229.271,850.581H185.1c-2.95,0-5.342-2.392-5.342-5.342V604.86c0-2.95,2.392-5.342,5.342-5.342
				h42.061c2.95,0,5.342,2.392,5.342,5.342v6.195c0,2.95-2.392,5.342-5.342,5.342h-25.182c-2.95,0-5.342,2.392-5.342,5.342V828.36
				c0,2.95,2.392,5.342,5.342,5.342h27.291c2.95,0,5.342,2.392,5.342,5.342v6.195C234.613,848.189,232.221,850.581,229.271,850.581z
				"/>
		</g>
		<g>
			<rect x="223.263" y="512.862" style="fill:#2E4661;" width="212.37" height="212.37"/>
			<path style="fill:#E6E6E7;" d="M402.746,615.748c-18.03,9.555-37.049,8.457-50.804,5.662c-1.91-0.388-1.739-3.16,0.203-3.33
				c24.049-2.112,59.692-14.09,55.118-29.917c-3.769-13.041-13.365-24.296-20.4-31.184c-3.197-3.13-8.609-1.508-9.507,2.875
				c-5.107,24.931-17.238,36.12-31.08,43.92c-1.539,0.867-3.205-0.922-2.232-2.397c12.003-18.189,26.193-59.149,8.805-65.418
				c-12.087-4.358-25.942-3.55-35.621-2.05c-5.066,0.785-7.284,6.8-3.97,10.711c14.404,17.005,16.534,36.37,16.226,49.289
				c-0.045,1.879-2.641,2.289-3.275,0.52c-7.693-21.491-31.423-54.224-46.134-44.72c-11.104,7.174-18.993,19.153-23.617,27.831
				c-2.242,4.208,1.016,9.248,5.775,8.95c19.578-1.224,36.938,6.481,48.963,14.281c1.651,1.071,0.457,3.622-1.417,3.022
				c-23.52-7.536-60.227-10.349-62.59,5.443c-2.003,13.383,1.999,27.566,5.516,36.763c1.592,4.164,7.147,5.049,9.857,1.51
				c13.007-16.987,33.889-24.594,48.963-27.982c1.837-0.413,2.863,2.047,1.276,3.059c-21.154,13.497-50.274,42.6-38.613,54.482
				c10.026,10.216,24.811,15.608,34.265,18.182c3.701,1.008,7.031-2.458,5.918-6.13c-6.087-20.081,0.471-40.633,7.035-54.843
				c0.817-1.768,3.476-0.977,3.195,0.951c-3.62,24.841-1.683,62.596,14.334,61.786c15.48-0.784,30.43-9.495,38.256-14.859
				c2.381-1.632,2.013-5.258-0.652-6.367c-21.197-8.813-31.661-28.742-37.518-43.448c-0.684-1.716,1.502-3.128,2.777-1.792
				c16.864,17.675,50.704,40.39,59.901,26.073c7.132-11.102,9.368-25.238,9.996-35.048
				C411.999,616.818,406.955,613.518,402.746,615.748z"/>
			<g>
				<g>
					<g>
						<path style="fill:#2E4661;" d="M329.33,701.765c-22.77,0-44.165-8.855-60.244-24.934s-24.934-37.474-24.934-60.244
							s8.855-44.165,24.934-60.244c16.079-16.079,37.474-24.934,60.244-24.934s44.165,8.855,60.243,24.934
							c16.079,16.079,24.934,37.474,24.934,60.244s-8.855,44.165-24.934,60.244C373.495,692.91,352.1,701.765,329.33,701.765z
							 M329.33,533.745c-22.147,0-42.956,8.612-58.593,24.25c-15.638,15.638-24.25,36.447-24.25,58.593s8.612,42.955,24.25,58.593
							c15.638,15.638,36.447,24.25,58.593,24.25s42.955-8.612,58.593-24.25c15.638-15.638,24.25-36.447,24.25-58.593
							s-8.612-42.955-24.25-58.593C372.285,542.357,351.477,533.745,329.33,533.745z"/>
					</g>
					<g>
						<path style="fill:#2E4661;" d="M329.33,680.763c-35.386,0-64.175-28.789-64.175-64.175s28.789-64.175,64.175-64.175
							c35.386,0,64.174,28.789,64.174,64.175S364.716,680.763,329.33,680.763z M329.33,554.747
							c-34.099,0-61.841,27.742-61.841,61.841s27.742,61.841,61.841,61.841c34.099,0,61.841-27.742,61.841-61.841
							S363.429,554.747,329.33,554.747z"/>
					</g>
					<g>
						<path style="fill:#2E4661;" d="M329.33,659.76c-23.805,0-43.172-19.367-43.172-43.172c0-23.805,19.367-43.172,43.172-43.172
							c23.805,0,43.172,19.367,43.172,43.172C372.502,640.393,353.135,659.76,329.33,659.76z M329.33,575.75
							c-22.518,0-40.838,18.32-40.838,40.838c0,22.518,18.32,40.838,40.838,40.838c22.518,0,40.838-18.32,40.838-40.838
							C370.168,594.07,351.848,575.75,329.33,575.75z"/>
					</g>
					<g>
						<path style="fill:#2E4661;" d="M329.33,638.757c-12.224,0-22.169-9.945-22.169-22.169c0-12.224,9.945-22.169,22.169-22.169
							c12.224,0,22.169,9.945,22.169,22.169C351.499,628.812,341.554,638.757,329.33,638.757z M329.33,596.752
							c-10.938,0-19.836,8.898-19.836,19.836c0,10.937,8.898,19.836,19.836,19.836c10.937,0,19.836-8.898,19.836-19.836
							C349.166,605.651,340.267,596.752,329.33,596.752z"/>
					</g>
				</g>
			</g>
		</g>
		<g>
			<rect x="224.139" y="734.603" style="fill:#2E4661;" width="212.37" height="212.37"/>
			<path style="fill:#E6E6E7;" d="M403.621,837.489c-18.03,9.556-37.049,8.457-50.804,5.662c-1.911-0.388-1.739-3.159,0.203-3.33
				c24.049-2.112,59.691-14.09,55.118-29.917c-3.769-13.041-13.365-24.296-20.4-31.184c-3.197-3.13-8.609-1.508-9.507,2.875
				c-5.107,24.931-17.238,36.12-31.08,43.92c-1.539,0.867-3.205-0.922-2.232-2.397c12.003-18.189,26.193-59.149,8.805-65.418
				c-12.087-4.358-25.942-3.55-35.621-2.049c-5.066,0.785-7.284,6.8-3.97,10.711c14.404,17.005,16.534,36.37,16.226,49.289
				c-0.045,1.879-2.641,2.289-3.275,0.52c-7.692-21.491-31.423-54.224-46.134-44.719c-11.104,7.174-18.993,19.153-23.617,27.831
				c-2.242,4.208,1.016,9.248,5.775,8.95c19.578-1.224,36.938,6.481,48.963,14.281c1.651,1.071,0.457,3.622-1.417,3.022
				c-23.52-7.536-60.227-10.349-62.59,5.443c-2.003,13.383,1.999,27.566,5.516,36.763c1.592,4.164,7.147,5.049,9.857,1.51
				c13.007-16.987,33.889-24.594,48.964-27.983c1.837-0.413,2.863,2.047,1.276,3.059c-21.154,13.497-50.274,42.6-38.613,54.482
				c10.026,10.216,24.811,15.608,34.265,18.182c3.701,1.008,7.03-2.458,5.918-6.13c-6.087-20.081,0.471-40.633,7.035-54.843
				c0.817-1.768,3.475-0.977,3.195,0.951c-3.62,24.841-1.683,62.596,14.334,61.786c15.48-0.784,30.43-9.496,38.256-14.859
				c2.381-1.632,2.013-5.258-0.652-6.367c-21.197-8.813-31.661-28.742-37.518-43.448c-0.684-1.716,1.502-3.128,2.777-1.792
				c16.864,17.675,50.704,40.39,59.901,26.073c7.132-11.102,9.368-25.238,9.996-35.049
				C412.875,838.559,407.83,835.259,403.621,837.489z"/>
			<g>
				<g>
					<g>
						<path style="fill:#2E4661;" d="M330.205,923.506c-22.77,0-44.165-8.855-60.244-24.934
							c-16.079-16.079-24.934-37.474-24.934-60.244s8.855-44.165,24.934-60.244c16.079-16.079,37.474-24.934,60.244-24.934
							s44.165,8.855,60.243,24.934c16.079,16.079,24.934,37.474,24.934,60.244s-8.855,44.165-24.934,60.244
							C374.37,914.651,352.975,923.506,330.205,923.506z M330.205,755.486c-22.147,0-42.956,8.612-58.594,24.25
							c-15.638,15.638-24.25,36.447-24.25,58.593s8.612,42.955,24.25,58.593c15.638,15.638,36.447,24.25,58.594,24.25
							s42.955-8.612,58.593-24.25c15.638-15.638,24.25-36.447,24.25-58.593s-8.612-42.955-24.25-58.593
							C373.16,764.098,352.352,755.486,330.205,755.486z"/>
					</g>
					<g>
						<path style="fill:#2E4661;" d="M330.205,902.504c-35.386,0-64.175-28.789-64.175-64.175s28.789-64.175,64.175-64.175
							c35.386,0,64.174,28.789,64.174,64.175S365.591,902.504,330.205,902.504z M330.205,776.488
							c-34.099,0-61.841,27.742-61.841,61.841s27.742,61.841,61.841,61.841c34.099,0,61.841-27.742,61.841-61.841
							S364.304,776.488,330.205,776.488z"/>
					</g>
					<g>
						<path style="fill:#2E4661;" d="M330.205,881.501c-23.805,0-43.172-19.367-43.172-43.172c0-23.805,19.367-43.172,43.172-43.172
							c23.805,0,43.172,19.367,43.172,43.172C373.377,862.134,354.01,881.501,330.205,881.501z M330.205,797.491
							c-22.518,0-40.839,18.32-40.839,40.838c0,22.518,18.32,40.838,40.839,40.838c22.518,0,40.838-18.32,40.838-40.838
							C371.043,815.811,352.723,797.491,330.205,797.491z"/>
					</g>
					<g>
						<path style="fill:#2E4661;" d="M330.205,860.498c-12.224,0-22.17-9.945-22.17-22.169c0-12.224,9.945-22.169,22.17-22.169
							c12.224,0,22.169,9.945,22.169,22.169C352.374,850.553,342.429,860.498,330.205,860.498z M330.205,818.493
							c-10.938,0-19.836,8.898-19.836,19.836c0,10.937,8.898,19.836,19.836,19.836c10.937,0,19.836-8.898,19.836-19.836
							C350.041,827.392,341.142,818.493,330.205,818.493z"/>
					</g>
				</g>
			</g>
		</g>
	</g>
	<g>
		<path style="fill:#2E4661;" d="M381.357,481.016h-8.071c-4.35,0-7.876-4.419-7.876-9.87v-6.043c0-5.451,3.526-9.87,7.876-9.87
			h8.071c4.35,0,7.876,4.419,7.876,9.87v6.043C389.233,476.597,385.707,481.016,381.357,481.016z"/>
		<g>
			<path style="fill:#679BC6;" d="M200.153,458.55h-4.238c-4.076,0-7.381-3.304-7.381-7.381v-51.735
				c0-4.076,3.305-7.381,7.381-7.381h4.238c4.076,0,7.381,3.305,7.381,7.381v51.735C207.534,455.245,204.23,458.55,200.153,458.55z"
				/>
			<rect x="199.844" y="381.198" style="fill:#2E4661;" width="236.127" height="89.566"/>
			<g>
				
					<ellipse transform="matrix(0.1602 -0.9871 0.9871 0.1602 -95.9676 740.0811)" style="fill:#679BC6;" cx="386.947" cy="426.439" rx="33.248" ry="33.248"/>
				
					<ellipse transform="matrix(0.7071 -0.7071 0.7071 0.7071 -188.2037 398.5136)" style="fill:#3A6599;" cx="386.947" cy="426.439" rx="23.576" ry="23.576"/>
				
					<ellipse transform="matrix(0.1602 -0.9871 0.9871 0.1602 -85.9214 746.4484)" style="fill:#FFFFFF;" cx="395.712" cy="423.718" rx="8.463" ry="8.463"/>
			</g>
		</g>
		<path style="fill:#2E4661;" d="M254.692,480.413h-8.071c-4.35,0-7.876-4.419-7.876-9.871V464.5c0-5.451,3.526-9.871,7.876-9.871
			h8.071c4.35,0,7.876,4.419,7.876,9.871v6.043C262.568,475.994,259.042,480.413,254.692,480.413z"/>
	</g>
	<path style="opacity:0.1;fill:#272525;" d="M1318.595,587.646c2.918,5.601,4.632,11.161,5.734,18.594
		c0.017,0.113,0.044,0.319,0.078,0.646c2.837,3.321,6.065,6.248,10.265,8.273c3.14,1.514,6.949,3.081,10.83,3.964v-5.462
		c0-16.13-4.562-31.6-13.192-44.738c-8.563-13.034-20.288-22.518-33.909-27.427c-9.217-3.321-18.504-3.321-27.485-3.321h-26.135
		c-12.146,0-22.826,2.601-32.649,7.951c-12.526,6.823-23.412,19.121-29.867,33.741c-2.237,5.065-3.93,10.373-5.106,15.874
		c6.047,2.707,14.136,2.952,20.843,2.603c0.114-0.425,0.22-0.838,0.346-1.283c1.374-4.871,4.739-11.866,7.66-15.925
		c3.894-5.409,7.53-8.927,12.968-12.546c4.955-3.298,9.874-5.236,16.449-6.482c0.278-0.053,1.166-0.193,3.4-0.358
		c0.932-0.069,1.939-0.101,3.167-0.101h36.586c5.534,0,9.276,0.676,14.831,2.678c4.31,1.553,10.498,5.357,14.087,8.659
		C1312.281,577.39,1315.393,581.499,1318.595,587.646z"/>
	<path style="opacity:0.1;fill:#272525;" d="M1338.868,612.154c-2.216-0.711-4.469-1.117-6.498-1.038
		c-1.373,8.511-0.192,18.264-0.192,26.918c0,16.533,0,33.066,0,49.599c0,25.169,0,50.338,0,75.507h20.767
		c0-14.541,0-29.081,0-43.622c0-19.785,0-39.57,0-59.354c0-8.095,0-16.19,0-24.285c0-7.912-4.923-46.013-12.159-51.348
		C1338.567,582.895,1341.868,613.116,1338.868,612.154z"/>
	<path style="fill:#D0D1D3;" d="M1333.923,560.763c-9.056-13.786-21.458-23.817-35.864-29.009
		c-9.748-3.513-19.571-3.513-29.071-3.513h-27.642c-12.847,0-24.142,2.751-34.532,8.41c-13.248,7.216-24.762,20.224-31.589,35.687
		c-2.457,5.564-4.288,11.396-5.513,17.352c-0.603,2.93-1.965,5.597,0.583,7.439c2.45,1.771,6.195,2.38,9.132,2.557
		c2.513,0.152,8.653,0.524,10.637-1.336c1.533-1.437,1.62-5.867,2.172-7.825c1.453-5.152,5.012-12.551,8.102-16.843
		c4.119-5.721,7.965-9.442,13.716-13.27c5.24-3.488,10.443-5.538,17.397-6.855c0.294-0.056,1.233-0.204,3.597-0.379
		c0.986-0.073,2.051-0.107,3.349-0.107h38.696c5.853,0,9.811,0.715,15.686,2.832c4.559,1.643,11.103,5.666,14.9,9.159
		c5.061,4.656,8.352,9.003,11.739,15.505c3.086,5.924,4.9,11.805,6.064,19.666c0.05,0.333,0.18,1.394,0.335,4.066
		c0.064,1.116,0.094,2.305,0.094,3.741v166.014h21.965V608.081C1347.876,591.021,1343.051,574.659,1333.923,560.763z"/>
	<g>
		<path style="fill:#2E4661;" d="M1134.893,709.64v173.528c0,27.972,22.675,50.647,50.647,50.647h152.353
			c23.669,0,42.857-19.821,42.857-44.272V709.64H1134.893z M1266.018,825.033v43.36c0,3.221-3.633,5.831-8.115,5.831h-0.164
			c-4.482,0-8.115-2.611-8.115-5.831v-43.36c-13.876-3.748-24.116-16.784-24.116-32.292c0-18.435,14.467-33.379,32.313-33.379
			c17.846,0,32.313,14.944,32.313,33.379C1290.134,808.249,1279.894,821.284,1266.018,825.033z"/>
	</g>
	<path style="fill:#F4D242;" d="M1549.624,753.709c-9.81-10.451-24.322-15.53-38.375-11.96
		c-14.019,3.562-24.759,15.368-30.261,28.318c-0.857,2.018-1.616,4.076-2.275,6.166c-1.783,5.656-6.37,9.844-11.936,11.255
		c-0.545-1.546-1.905-2.643-3.499-2.64l-3.178,0.007c-1.764,0.004-3.237,1.354-3.63,3.166c-52.74,0.119-193.563,0.44-193.563,0.44
		c-5.149,0.012-9.313,4.195-9.301,9.344l0,0.188c0.012,5.149,4.195,9.313,9.344,9.301c0,0,2.173-0.005,6.073-0.014l0.03,13.238
		l0.05,0l0.031,13.702l4.093-0.009l-0.02-8.72l7.029-0.016l0.02,8.72l4.093-0.009l-0.031-13.702l6.845-0.016l0.021,9.253
		l12.011-0.027l-0.013-5.694l5.605-0.013l0.036,15.659l7.029-0.016l-0.19-32.456c45.595-0.105,109.03-0.251,140.744-0.325
		c0.033,2.256,1.701,4.073,3.753,4.068l3.178-0.007c1.87-0.004,3.412-1.52,3.688-3.496c5.476,1.473,9.955,5.654,11.767,11.249
		c0.013,0.039,0.025,0.078,0.038,0.117c4.664,14.305,14.334,26.81,28.425,32.661c6.513,2.704,13.739,3.086,20.621,1.85
		c6.922-1.243,13.201-4.83,18.522-9.313c13.373-11.271,19.425-29.763,19.448-46.804
		C1565.753,781.361,1560.564,765.364,1549.624,753.709z M1534.194,796.965c-1.806,0.649-2.135,3.063-0.567,4.171
		c8.463,5.976,16.868,15.609,12.629,26.544c-0.039,0.1-0.078,0.2-0.119,0.3c-2.273,5.573-6.816,9.906-11.874,12.591
		c-7.098,3.768-15.647,4.13-23.223,1.309c-7.171-2.671-14.796-10.69-15.109-19.216c-0.446-12.135,6.401-16.441,13.459-21.472
		c1.563-1.114,1.223-3.527-0.586-4.168c-8.253-2.925-14.765-11.966-14.653-20.808c0.177-14.02,14.639-23.44,27.775-23.917
		c10.374-0.377,21.207,7.275,25.701,16.406C1553.051,779.729,1545.094,793.045,1534.194,796.965z"/>
	<g>
		<g>
			<rect x="667.968" y="715.457" style="fill:#6DB294;" width="15.577" height="48.547"/>
			<rect x="758.067" y="765.553" style="fill:#6DB294;" width="15.577" height="48.547"/>
			<rect x="776.653" y="765.553" style="fill:#6DB294;" width="15.577" height="27.372"/>
			<rect x="828.695" y="727.335" style="fill:#A36652;" width="15.577" height="36.668"/>
			<rect x="847.104" y="713.391" style="fill:#A36652;" width="15.577" height="50.612"/>
			<rect x="811.347" y="765.553" style="fill:#6DB294;" width="15.577" height="60.425"/>
			<rect x="648.142" y="724.236" style="fill:#6DB294;" width="15.577" height="39.767"/>
			<rect x="628.317" y="725.786" style="fill:#6DB294;" width="15.577" height="38.218"/>
			<rect x="594.685" y="753.158" style="fill:#6DB294;" width="15.577" height="10.845"/>
			<rect x="576.275" y="757.289" style="fill:#6DB294;" width="15.577" height="6.714"/>
			<rect x="557.866" y="754.449" style="fill:#6DB294;" width="15.577" height="9.554"/>
			<rect x="683.545" y="765.553" style="fill:#A36652;" width="15.577" height="24.273"/>
			<rect x="611.678" y="764.778" style="fill:#A36652;" width="15.577" height="8.263"/>
			<rect x="702.308" y="765.553" style="fill:#A36652;" width="15.577" height="56.81"/>
			<rect x="720.894" y="765.553" style="fill:#A36652;" width="15.577" height="49.58"/>
			<rect x="739.481" y="765.553" style="fill:#A36652;" width="15.577" height="15.494"/>
			<rect x="793.646" y="714.424" style="fill:#A36652;" width="15.577" height="49.58"/>
		</g>
		<g>
			<rect x="990.873" y="737.284" style="fill:#6DB294;" width="15.577" height="27.911"/>
			<rect x="937.452" y="765.531" style="fill:#6DB294;" width="15.577" height="48.547"/>
			<rect x="918.866" y="765.531" style="fill:#6DB294;" width="15.577" height="27.372"/>
			<rect x="866.824" y="727.313" style="fill:#A36652;" width="15.577" height="36.668"/>
			<rect x="884.171" y="765.531" style="fill:#6DB294;" width="15.577" height="60.425"/>
			<rect x="1010.698" y="742.332" style="fill:#6DB294;" width="15.577" height="22.863"/>
			<rect x="974.625" y="765.531" style="fill:#A36652;" width="15.577" height="27.73"/>
			<rect x="956.038" y="765.531" style="fill:#A36652;" width="15.577" height="15.494"/>
			<rect x="901.873" y="714.402" style="fill:#A36652;" width="15.577" height="49.58"/>
		</g>
	</g>
	<path style="fill:#D0D1D3;" d="M1038.444,679.742h-481.92c-3.293,0-5.962,0.538-5.962,1.203v0.024c0,0.664,2.669,1.203,5.962,1.203
		h481.92c3.293,0,5.962-0.538,5.962-1.203v-0.024C1044.406,680.281,1041.737,679.742,1038.444,679.742z"/>
	<g>
		<path style="fill:#6DB294;" d="M952.271,678.031c4.32-38.069,8.64-76.138,12.96-114.207c-1.989,0.269-3.977,0.538-5.966,0.807
			c6.75,37.529,13.5,75.058,20.25,112.587c0.531,2.955,5.257,2.864,5.858,0c4.59-21.869,9.18-43.739,13.77-65.608
			c-1.953,0-3.905,0-5.858,0c5.67,21.06,11.34,42.119,17.01,63.178c0.343,1.274,1.59,2.271,2.929,2.23
			c8.91-0.27,17.819-0.54,26.729-0.81c3.908-0.118,3.92-6.194,0-6.075c-8.91,0.27-17.819,0.54-26.729,0.81
			c0.976,0.743,1.953,1.487,2.929,2.23c-5.67-21.06-11.34-42.119-17.01-63.178c-0.754-2.801-5.227-3.008-5.858,0
			c-4.59,21.869-9.18,43.739-13.77,65.608c1.953,0,3.905,0,5.858,0c-6.75-37.529-13.5-75.058-20.25-112.587
			c-0.657-3.653-5.612-2.314-5.966,0.807c-4.32,38.069-8.64,76.138-12.96,114.207C945.755,681.92,951.834,681.877,952.271,678.031
			L952.271,678.031z"/>
	</g>
	<g>
		<path style="fill:#679BC6;" d="M550.695,647.859c5.348-0.27,10.695-0.54,16.042-0.81c1.299-0.065,2.636-0.871,2.929-2.23
			c7.687-35.707,15.374-71.413,23.061-107.12c-1.953,0-3.905,0-5.858,0c7.821,21.869,15.641,43.739,23.462,65.608
			c1.051,2.939,4.768,2.829,5.858,0c7.019-18.225,14.037-36.449,21.056-54.674c-1.953,0-3.905,0-5.858,0
			c7.62,25.109,15.24,50.219,22.861,75.328c0.405,1.334,1.544,2.181,2.929,2.23c26.059,0.927,52.117,1.853,78.176,2.78
			c2.272,0.081,7.51,1.256,9.398-0.632c3.065-3.065,5.29-7.66,7.717-11.212c7.412-10.845,14.824-21.69,22.235-32.534
			c-1.748,0-3.497,0-5.245,0c10.026,18.63,20.053,37.259,30.079,55.889c0.959,1.781,3.382,1.903,4.771,0.615
			c7.42-6.885,14.839-13.77,22.259-20.654c-1.59-0.205-3.18-0.41-4.771-0.615c6.818,8.91,13.636,17.82,20.454,26.729
			c1.622,2.119,4.592,1.905,5.552-0.726c1.404-3.847,2.807-7.695,4.211-11.542c-1.851,0.242-3.701,0.484-5.552,0.726
			c2.406,4.657,4.813,9.315,7.219,13.972c0.871,1.686,3.502,2.031,4.77,0.615c19.05-21.262,38.101-42.524,57.151-63.786
			c-1.59-0.205-3.18-0.41-4.771-0.615c7.47,11.647,14.94,23.295,22.41,34.942c4.72,7.36,9.44,14.719,14.16,22.079
			c1.351,2.107,3.925,8.311,7.051,8.268c28.663-0.402,57.326-0.804,85.99-1.206c0.183-0.003,0.367-0.005,0.55-0.008
			c3.914-0.055,3.919-6.13,0-6.075c-28.876,0.405-57.753,0.81-86.629,1.215c0.874,0.502,1.748,1.003,2.623,1.504
			c-13.636-21.262-27.272-42.524-40.908-63.786c-1.006-1.569-3.413-2.13-4.77-0.615c-19.05,21.262-38.101,42.524-57.151,63.786
			c1.59,0.205,3.18,0.41,4.771,0.615c-2.406-4.657-4.813-9.315-7.219-13.972c-1.304-2.524-4.717-1.563-5.552,0.726
			c-1.404,3.847-2.807,7.695-4.211,11.542c1.851-0.242,3.701-0.484,5.552-0.726c-6.818-8.91-13.636-17.82-20.454-26.729
			c-1.205-1.574-3.205-2.067-4.771-0.615c-7.42,6.885-14.839,13.77-22.259,20.654c1.59,0.205,3.18,0.41,4.771,0.615
			c-10.027-18.629-20.053-37.259-30.08-55.888c-1.148-2.134-4.021-1.792-5.245,0c-9.826,14.377-19.652,28.754-29.478,43.131
			c0.874-0.501,1.749-1.003,2.623-1.504c-28.475-1.013-56.951-2.025-85.426-3.037c0.976,0.743,1.953,1.487,2.929,2.23
			c-7.62-25.109-15.24-50.219-22.86-75.328c-0.926-3.05-4.808-2.726-5.858,0c-7.018,18.225-14.037,36.449-21.056,54.674
			c1.953,0,3.905,0,5.858,0c-7.821-21.869-15.641-43.739-23.462-65.608c-0.938-2.624-5.178-3.159-5.858,0
			c-7.687,35.707-15.374,71.413-23.061,107.12c0.976-0.743,1.953-1.487,2.929-2.23c-5.347,0.27-10.695,0.54-16.042,0.81
			C546.798,641.981,546.778,648.057,550.695,647.859L550.695,647.859z"/>
	</g>
	<g>
		<g>
			<g>
				
					<ellipse transform="matrix(0.9927 -0.1205 0.1205 0.9927 -38.132 129.6835)" style="fill:#F9A140;" cx="1053.302" cy="380.16" rx="49.374" ry="49.374"/>
				<path style="fill:#F4D242;" d="M1066.061,322.206c-32.007-7.047-63.666,13.188-70.712,45.194
					c-7.047,32.007,13.188,63.666,45.195,70.713c32.007,7.047,63.666-13.188,70.713-45.194
					C1118.302,360.912,1098.068,329.253,1066.061,322.206z M1042.686,428.379c-26.631-5.863-43.466-32.204-37.603-58.835
					c5.863-26.631,32.204-43.466,58.835-37.603c26.631,5.863,43.466,32.204,37.603,58.835
					C1095.658,417.406,1069.317,434.242,1042.686,428.379z"/>
			</g>
			<path style="fill:#F4D242;" d="M1071.917,387.322c-1-2.201-2.843-4.149-5.526-5.844c2.034-0.627,3.685-1.636,4.954-3.027
				c1.268-1.39,2.137-3.151,2.607-5.284c0.933-4.237,0.146-7.8-2.36-10.686c-2.505-2.887-6.619-4.96-12.341-6.22l-2.064-0.454
				c0.423-1.919,0.845-3.839,1.268-5.758c0.389-1.765-2.805-2.468-3.193-0.703c-0.423,1.92-0.845,3.839-1.268,5.759l-2.076-0.457
				c0.423-1.919,0.845-3.839,1.268-5.758c0.389-1.765-2.805-2.468-3.193-0.703c-0.423,1.919-0.845,3.839-1.268,5.758l-8.381-1.845
				c-0.918-0.202-1.675-0.106-2.271,0.286c-0.595,0.392-0.998,1.06-1.206,2.005c-0.244,1.107-0.114,1.935,0.387,2.484
				c0.501,0.55,1.792,1.052,3.87,1.509l1.336,0.294l-8.031,36.479l-1.336-0.294c-2.241-0.493-3.701-0.61-4.381-0.35
				c-0.68,0.261-1.139,0.932-1.376,2.011c-0.214,0.971-0.138,1.752,0.227,2.342c0.365,0.59,1.02,0.989,1.965,1.197l8.625,1.899
				c-0.423,1.919-0.845,3.839-1.268,5.759c-0.388,1.765,2.805,2.468,3.193,0.703c0.423-1.92,0.845-3.839,1.268-5.759l2.075,0.457
				c-0.423,1.919-0.845,3.839-1.268,5.759c-0.388,1.765,2.805,2.468,3.193,0.703c0.423-1.92,0.845-3.839,1.268-5.759l1.052,0.232
				l3.482,0.767c2.969,0.654,5.3,0.99,6.994,1.009c1.694,0.02,3.285-0.203,4.774-0.668c2.499-0.808,4.578-2.09,6.238-3.848
				c1.661-1.757,2.761-3.863,3.302-6.32C1073.099,392.081,1072.918,389.523,1071.917,387.322z M1058.857,362.287
				c3.131,0.689,5.391,1.86,6.783,3.51c1.391,1.65,1.822,3.677,1.293,6.079c-0.558,2.537-1.896,4.209-4.012,5.017
				c-2.116,0.807-5.092,0.789-8.923-0.055l-1.376-0.303c1.093-4.966,2.187-9.933,3.28-14.899L1058.857,362.287z M1052.71,360.934
				c-1.094,4.966-2.187,9.933-3.28,14.899l-2.076-0.457c1.093-4.966,2.187-9.933,3.28-14.899L1052.71,360.934z M1042.603,396.956
				c1.218-5.533,2.436-11.066,3.655-16.599l2.076,0.457c-1.218,5.533-2.436,11.066-3.654,16.599L1042.603,396.956z
				 M1060.926,398.973c-2.361,0.825-6.078,0.679-11.152-0.438l-1.902-0.419c1.218-5.533,2.436-11.066,3.655-16.599l2.307,0.508
				c4.993,1.099,8.343,2.502,10.047,4.207c1.705,1.705,2.227,4.055,1.568,7.052C1064.794,396.253,1063.286,398.149,1060.926,398.973
				z"/>
		</g>
		<g>
			<g>
				
					<ellipse transform="matrix(0.7071 -0.7071 0.7071 0.7071 140.5742 857.9961)" style="fill:#F9A140;" cx="1105.98" cy="259.31" rx="77.1" ry="77.1"/>
				<path style="fill:#F4D242;" d="M1075.697,171.733c-48.367,16.725-74.019,69.492-57.294,117.86
					c16.725,48.367,69.492,74.019,117.86,57.294c48.367-16.725,74.019-69.492,57.294-117.86
					C1176.832,180.66,1124.064,155.008,1075.697,171.733z M1131.176,332.176c-40.243,13.915-84.147-7.427-98.063-47.67
					c-13.916-40.243,7.427-84.147,47.67-98.063c40.243-13.915,84.147,7.427,98.063,47.67
					C1192.762,274.357,1171.419,318.261,1131.176,332.176z"/>
			</g>
			<path style="fill:#F4D242;" d="M1136.609,253.662c-3.127-2.115-7.171-3.206-12.125-3.275c2.197-2.494,3.573-5.185,4.128-8.072
				c0.554-2.885,0.275-5.939-0.839-9.162c-2.214-6.403-6.167-10.505-11.859-12.303c-5.691-1.8-12.859-1.205-21.506,1.785
				l-3.119,1.079c-1.003-2.901-2.006-5.801-3.009-8.702c-0.922-2.667-5.747-0.998-4.825,1.668c1.003,2.901,2.006,5.801,3.009,8.702
				l-3.136,1.085c-1.003-2.901-2.006-5.801-3.009-8.702c-0.922-2.667-5.747-0.998-4.825,1.669c1.003,2.901,2.006,5.801,3.009,8.702
				l-12.665,4.38c-1.387,0.48-2.317,1.225-2.79,2.233s-0.464,2.226,0.03,3.654c0.579,1.673,1.426,2.67,2.542,2.991
				c1.116,0.323,3.244-0.061,6.385-1.147l2.019-0.698l19.061,55.125l-2.019,0.698c-3.386,1.171-5.426,2.207-6.119,3.108
				c-0.692,0.903-0.756,2.17-0.192,3.801c0.507,1.468,1.245,2.446,2.212,2.933c0.967,0.487,2.164,0.485,3.593-0.009l13.033-4.507
				c1.003,2.901,2.006,5.801,3.009,8.702c0.922,2.667,5.748,0.998,4.825-1.669c-1.003-2.901-2.006-5.801-3.009-8.702l3.136-1.085
				c1.003,2.901,2.006,5.802,3.009,8.702c0.922,2.667,5.747,0.998,4.825-1.669c-1.003-2.901-2.006-5.801-3.009-8.702l1.589-0.549
				l5.262-1.82c4.486-1.551,7.866-3.005,10.136-4.361c2.272-1.356,4.208-2.951,5.812-4.784c2.668-3.115,4.391-6.518,5.168-10.212
				c0.779-3.694,0.526-7.396-0.758-11.109C1142.064,259.036,1139.738,255.777,1136.609,253.662z M1098.798,230.98
				c4.731-1.636,8.696-1.922,11.896-0.859c3.198,1.063,5.426,3.41,6.681,7.04c1.326,3.834,0.909,7.151-1.25,9.953
				c-2.159,2.801-6.136,5.204-11.926,7.206l-2.079,0.719c-2.595-7.505-5.19-15.01-7.785-22.515L1098.798,230.98z M1089.509,234.193
				c2.595,7.505,5.19,15.01,7.785,22.515l-3.136,1.085c-2.595-7.505-5.19-15.01-7.785-22.515L1089.509,234.193z M1105.434,290.402
				c-2.891-8.361-5.782-16.723-8.674-25.084l3.137-1.085c2.891,8.361,5.782,16.723,8.674,25.084L1105.434,290.402z
				 M1131.477,278.142c-2.471,3.025-7.539,5.862-15.207,8.513l-2.874,0.994c-2.891-8.361-5.782-16.723-8.674-25.084l3.485-1.205
				c7.545-2.609,13.15-3.474,16.81-2.594c3.661,0.88,6.274,3.583,7.84,8.111C1134.409,271.365,1133.949,275.12,1131.477,278.142z"/>
		</g>
		<circle style="opacity:0.1;fill:#272525;" cx="804.651" cy="379.983" r="165.726"/>
		<g>
			<g>
				
					<ellipse transform="matrix(0.7071 -0.7071 0.7071 0.7071 -24.3537 668.9271)" style="fill:#F9A140;" cx="795.29" cy="363.861" rx="139.747" ry="139.748"/>
				<path style="fill:#F4D242;" d="M755.42,200.702C665.31,222.721,610.111,313.62,632.13,403.73
					c22.019,90.111,112.918,145.309,203.028,123.29c90.11-22.019,145.309-112.918,123.29-203.028
					C936.43,233.882,845.531,178.683,755.42,200.702z M828.462,499.614c-74.975,18.321-150.605-27.606-168.926-102.581
					c-18.32-74.975,27.607-150.605,102.581-168.926c74.975-18.32,150.605,27.607,168.926,102.581
					C949.363,405.663,903.436,481.294,828.462,499.614z"/>
			</g>
			<path style="fill:#F4D242;" d="M851.518,358.838c-5.287-4.345-12.399-6.996-21.33-7.956c4.385-4.13,7.323-8.754,8.812-13.87
				c1.487-5.113,1.499-10.672,0.032-16.676c-2.915-11.929-9.357-19.999-19.325-24.206c-9.966-4.209-23.004-4.346-39.113-0.409
				l-5.811,1.42c-1.32-5.404-2.641-10.808-3.962-16.212c-1.214-4.968-10.204-2.772-8.99,2.196c1.32,5.405,2.641,10.809,3.962,16.213
				l-5.844,1.428c-1.32-5.404-2.641-10.808-3.962-16.212c-1.214-4.968-10.204-2.771-8.99,2.197
				c1.32,5.404,2.641,10.808,3.961,16.212l-23.596,5.766c-2.585,0.632-4.388,1.82-5.412,3.559c-1.024,1.739-1.212,3.939-0.562,6.599
				c0.762,3.117,2.123,5.059,4.082,5.827c1.96,0.771,5.865,0.438,11.716-0.992l3.762-0.919l25.095,102.7l-3.761,0.919
				c-6.308,1.541-10.164,3.067-11.566,4.576c-1.402,1.512-1.73,3.788-0.988,6.827c0.668,2.734,1.834,4.624,3.497,5.666
				s3.824,1.24,6.485,0.59l24.281-5.933c1.32,5.404,2.641,10.809,3.962,16.213c1.214,4.968,10.204,2.771,8.99-2.197
				c-1.32-5.404-2.641-10.808-3.961-16.212l5.843-1.428c1.32,5.404,2.641,10.809,3.962,16.213c1.214,4.968,10.204,2.771,8.99-2.197
				c-1.32-5.404-2.641-10.808-3.962-16.213l2.96-0.723l9.804-2.396c8.358-2.042,14.702-4.095,19.028-6.16
				c4.329-2.063,8.092-4.614,11.296-7.652c5.341-5.17,9.024-11.021,11.05-17.556c2.029-6.536,2.198-13.259,0.507-20.176
				C860.456,369.457,856.808,363.182,851.518,358.838z M787.111,311.523c8.814-2.154,16.018-2,21.613,0.457
				c5.592,2.459,9.216,7.07,10.869,13.832c1.745,7.143,0.433,13.06-3.936,17.751c-4.369,4.691-11.952,8.355-22.74,10.992
				l-3.873,0.946c-3.417-13.982-6.833-27.964-10.25-41.946L787.111,311.523z M769.804,315.752
				c3.416,13.982,6.833,27.964,10.25,41.946l-5.843,1.428c-3.417-13.982-6.833-27.964-10.25-41.946L769.804,315.752z
				 M789.056,419.88c-3.806-15.577-7.613-31.155-11.419-46.732l5.844-1.428c3.806,15.577,7.613,31.155,11.419,46.732L789.056,419.88
				z M838.125,402.151c-4.969,5.042-14.596,9.305-28.881,12.796l-5.355,1.308c-3.806-15.577-7.613-31.155-11.419-46.732l6.494-1.587
				c14.057-3.435,24.317-4.05,30.776-1.843c6.458,2.206,10.717,7.525,12.779,15.962C844.56,390.415,843.095,397.114,838.125,402.151
				z"/>
		</g>
	</g>
</g>
</svg>
